<svg width="640" height="400" viewBox="0 0 640 400" fill="none" xmlns="http://www.w3.org/2000/svg">
<rect x="4" y="4" width="632" height="392" rx="6" fill="white" stroke="black" stroke-width="8"/>
<path d="M0 10C0 4.47715 4.47715 0 10 0H630C635.523 0 640 4.47715 640 10V40H0V10Z" fill="black"/>
<path d="M79.28 203.76L110.48 187.92V172.44L62.48 198.6V209.04L110.48 235.32V219.24L79.28 203.76ZM151.538 243H205.178V228.96H166.658V157.8H151.538V243ZM252.748 226.44C249.988 230.64 245.308 232.8 238.588 232.8C229.828 232.8 224.908 228.6 224.908 220.8V216.36H266.548V203.88C266.548 189.36 257.068 179.04 238.828 179.04C220.708 179.04 210.988 188.16 210.988 204.96V219.12C210.988 234.84 219.868 244.8 238.588 244.8C251.188 244.8 259.828 240.96 264.508 233.28L266.908 229.32L255.028 222.96L252.748 226.44ZM238.828 190.8C247.948 190.8 252.628 195.24 252.628 203.04V205.68H224.908V203.04C224.908 195.24 229.828 190.8 238.828 190.8ZM311.921 179.04H304.361C295.361 179.28 287.921 180.48 282.041 182.64C278.201 184.2 277.361 185.64 277.361 189.48V243H291.281V194.64C291.281 193.8 291.641 193.32 292.481 193.2C295.601 192.24 299.441 191.76 303.881 191.76H311.921V179.04ZM345.348 179.04C327.708 179.04 317.748 188.04 317.748 203.04V220.8C317.748 235.8 327.708 244.8 345.348 244.8C363.108 244.8 373.068 235.8 373.068 220.8V203.04C373.068 188.04 363.108 179.04 345.348 179.04ZM345.348 232.2C336.588 232.2 331.668 228 331.668 220.8V203.04C331.668 195.72 336.588 191.64 345.348 191.64C354.108 191.64 359.148 195.72 359.148 203.04V220.8C359.148 228 354.108 232.2 345.348 232.2ZM423.704 245.76C423.704 254.4 419.384 258.72 410.984 258.72C405.104 258.72 400.904 256.68 398.384 252.6L396.104 249.12L383.864 255.96L386.264 259.68C390.944 267.36 399.224 271.2 411.224 271.2C429.224 271.2 437.624 261.6 437.624 245.04V180.84H423.704V227.4C419.384 228.6 415.184 229.08 411.344 229.08C402.584 229.08 398.264 225.12 398.264 217.2V180.84H384.344V217.68C384.344 233.28 392.624 241.8 409.424 241.8C413.984 241.8 418.664 241.32 423.704 240.12V245.76ZM472.957 250.2H487.117L521.437 157.68H507.277L472.957 250.2ZM530.128 172.44V187.92L561.328 203.76L530.128 219.24V235.32L578.128 209.04V198.6L530.128 172.44Z" fill="black"/>
<ellipse cx="20.3126" cy="20" rx="4.31258" ry="4" fill="white"/>
<ellipse cx="36.9376" cy="20" rx="4.31258" ry="4" fill="white"/>
<ellipse cx="53.5631" cy="20" rx="4.31258" ry="4" fill="white"/>
<rect x="116" y="14" width="409" height="12" rx="6" fill="white"/>
</svg>
